<?xml version="1.0" encoding="utf-8"?>
<!-- Generator: Adobe Illustrator 23.1.0, SVG Export Plug-In . SVG Version: 6.00 Build 0)  -->
<svg version="1.1" id="Layer_1" xmlns="http://www.w3.org/2000/svg" xmlns:xlink="http://www.w3.org/1999/xlink" x="0px" y="0px"
	 viewBox="0 0 283.46 283.46" style="enable-background:new 0 0 283.46 283.46;" xml:space="preserve">
<style type="text/css">
	.st0{display:none;}
	.st1{fill:#FFFFFF;}
</style>
<rect class="st0" width="283.46" height="283.46"/>
<g>
	<path class="st1" d="M258.92,70.48c-0.13,0.13-10.61,18.4-25.79,26.59c-12.09,6.45-38.15,8.19-47.28,8.6
		c-8.86-2.95-18.13-4.43-27.53-4.57c-5.78,0.27-12.89,2.42-16.92,3.76c-4.03-1.34-11.15-3.63-16.92-3.76
		c-9.4,0-18.67,1.61-27.53,4.57c-9.13-0.4-35.32-2.01-47.28-8.6c-15.31-8.19-25.65-26.46-25.79-26.59L7.22,40.93l1.75,7.79
		l2.15,10.07l3.36,15.18c0,0.27,6.98,31.16,25.25,46.88c2.95,2.55,6.18,4.7,9.67,6.45c-4.84,1.88-9.27,4.97-12.76,8.73l-3.22,3.49
		l3.36,3.49c10.61,10.88,21.22,16.52,31.56,16.52h0.27c2.95,0,6.04-0.54,8.86-1.48c0.54,12.36,3.49,23.24,17.06,36.8
		c11.82,11.82,11.82,20.68,11.82,25.39c0,1.21,0,2.55,0.4,3.76c1.21,4.43,9.27,16.39,31.56,18.27c0.54,0,2.01,0.27,3.22,0.27h0.4
		c1.21,0,2.69-0.13,3.22-0.27c22.3-1.88,30.36-13.83,31.56-18.27c0.27-1.21,0.4-2.55,0.4-3.76c0-4.84,0.13-13.7,11.82-25.39
		c13.57-13.57,16.52-24.45,17.06-36.8c2.82,0.94,5.91,1.48,8.86,1.48h0.27c10.21,0,20.95-5.64,31.56-16.52l3.36-3.49l-3.22-3.49
		c-3.63-3.76-7.92-6.85-12.76-8.73c3.49-1.75,6.72-3.9,9.67-6.45C262.01,105,268.86,74.24,269,73.97l3.36-15.18l2.15-10.07
		l1.75-7.79L258.92,70.48z M77.06,143.95c0,0.94,0,2.01-0.13,2.95c-2.69,1.75-5.78,2.55-9,2.55c-6.45,0-13.3-3.36-20.55-9.8
		c10.75-7.66,24.85-4.97,24.98-4.97l4.57,0.94h0.27C77.33,138.71,77.19,141.4,77.06,143.95z M175.65,167.32
		c-1.48,1.48-3.76,1.88-5.64,1.07c-6.98,8.6-11.28,20.95-11.28,20.95s1.48-13.3,8.06-21.76c0.4-0.54,0.94-1.21,1.48-1.75
		c-1.34,0.67-2.82,1.07-4.3,1.34c-1.88,0.27-3.76,0.27-5.64,0.13c-1.88-0.27-3.63-0.94-5.24-1.75l-0.13-0.13l-0.81-0.4
		c-0.81-0.4-1.48-0.94-2.01-1.48c-0.81,1.75-0.13,3.76,1.48,4.57c2.95,2.01-0.81,5.37-1.34,9.54c-0.54,4.16-1.48,6.18-1.48,12.09
		s4.97,9.4,4.97,12.49s2.01,7.79,0.94,10.75c-1.61,4.3-1.88,12.36-1.88,17.73c-3.9,1.07-7.66,1.75-11.55,1.75
		c-19.48-0.81-24.71-9.94-25.25-10.88c0-0.4,0-0.81,0-1.21c0-5.37-0.13-17.86-14.77-32.5C86.6,173.23,86.6,164.1,87.27,144.35
		c0.13-2.95,0.13-6.58,0.27-10.48l20.28,0.27c0,0-10.75-4.3-12.76-5.91c2.01,0.67,6.58-1.07,8.73-2.01
		c-2.28-0.13-4.43-0.94-6.31-2.28c2.82-0.27,6.98-1.61,8.33-2.95c-1.88,0.67-7.52-0.13-7.52-0.13c1.61-0.27,3.09-0.67,4.7-1.21
		c2.82-1.34,5.51-2.82,8.06-4.43c-2.15,0.13-4.43,0.13-6.58-0.13c-0.81,0-1.75-0.13-2.55-0.27c7.25-2.15,14.64-3.36,22.16-3.36
		c5.37,0.13,13.7,3.09,16.52,4.16l0.81,0.27l0.81-0.27c0.67-0.27,1.61-0.67,2.82-1.07c4.03,1.34,7.92,4.16,10.88,5.24
		c4.57,1.61,8.06,9.27,8.06,9.27s-7.79,6.18-7.12,9.27s7.92,26.33,3.22,28.61c1.48-0.13,2.95-0.54,4.43-1.21
		c2.69-1.21,4.97-2.82,7.12-4.84c4.7-4.57,10.48-14.24,10.48-14.24c-2.01,4.7-4.43,9.13-7.39,13.16c3.22-2.28,6.85-4.03,10.75-4.97
		c0,0-4.43,3.36-8.6,6.85C177.53,163.56,176.99,165.71,175.65,167.32z M235.01,139.65c-7.25,6.45-14.1,9.8-20.55,9.8
		c-3.22,0-6.31-0.81-9-2.55c0-0.94,0-1.88-0.13-2.95c-0.13-2.55-0.13-5.24-0.27-8.19h0.13l4.7-1.07
		C210.17,134.82,224.27,131.99,235.01,139.65z"/>
	<path class="st1" d="M131.86,167.99c2.95-0.94,5.24-4.57,5.24-4.57c-1.61,1.61-3.63,2.55-5.91,2.82
		c-7.66,0.54-16.52-15.31-20.28-18.27c2.55,5.24,5.78,10.21,9.54,14.64c-2.95-2.01-6.18-3.49-9.54-4.43c0,0,4.16,3.09,7.92,6.31
		c-0.54,1.75-0.13,3.76,1.07,5.24c1.34,1.34,3.49,1.75,5.24,1.07c6.45,8.06,10.48,19.34,10.48,19.34s-1.48-12.22-7.39-20.15
		c-0.81-0.94-1.61-1.88-2.42-2.82C127.56,168.13,129.85,168.39,131.86,167.99z"/>
</g>
</svg>
