<?xml version="1.0" encoding="utf-8"?>
<!-- Generator: Adobe Illustrator 23.1.0, SVG Export Plug-In . SVG Version: 6.00 Build 0)  -->
<svg version="1.1" id="Layer_1" xmlns="http://www.w3.org/2000/svg" xmlns:xlink="http://www.w3.org/1999/xlink" x="0px" y="0px"
	 viewBox="0 0 500 500" style="enable-background:new 0 0 500 500;" xml:space="preserve">
<style type="text/css">
	.st0{fill:#D4AF37;}
</style>
<path class="st0" d="M240.7,34.6L13.4,261.9c-5.3,5.3-5.3,13.9,0,19.2l42.2,42.2c5.3,5.3,13.9,5.3,19.2,0l108.8-108.8
	c8.5-8.5,23.2-2.5,23.2,9.6v234.3c0,7.5,6.1,13.6,13.6,13.6h60.2c7.5,0,13.6-6.1,13.6-13.6V224.1c0-12.1,14.6-18.1,23.2-9.6
	l108.8,108.8c5.3,5.3,13.9,5.3,19.2,0l42.2-42.2c5.3-5.3,5.3-13.9,0-19.2L259.9,34.6C254.6,29.3,246,29.3,240.7,34.6z"/>
</svg>
