<?xml version="1.0" standalone="no"?>
<!DOCTYPE svg PUBLIC "-//W3C//DTD SVG 20010904//EN"
 "http://www.w3.org/TR/2001/REC-SVG-20010904/DTD/svg10.dtd">
<svg version="1.0" xmlns="http://www.w3.org/2000/svg"
 width="500.000000pt" height="500.000000pt" viewBox="0 0 500.000000 500.000000"
 preserveAspectRatio="xMidYMid meet">
<metadata>
Created by potrace 1.11, written by Peter Selinger 2001-2013
</metadata>
<g transform="translate(0.000000,500.000000) scale(0.100000,-0.100000)"
fill="#000000" stroke="none">
<path d="M136 4249 c4 -6 11 -28 15 -48 12 -47 40 -179 45 -211 3 -14 9 -41
14 -60 5 -19 11 -46 14 -60 90 -493 314 -910 577 -1073 l67 -41 -69 -41 c-60
-35 -199 -157 -199 -175 0 -9 150 -156 180 -177 14 -9 31 -23 38 -30 31 -30
153 -94 225 -118 86 -29 197 -35 277 -17 24 6 45 10 46 9 1 -1 5 -27 8 -57 3
-30 8 -66 11 -80 3 -14 7 -36 10 -50 24 -132 118 -291 259 -438 163 -170 212
-266 222 -435 6 -111 31 -164 115 -241 79 -74 237 -147 345 -161 22 -2 67 -8
100 -13 63 -9 81 -8 159 3 219 30 377 108 471 230 42 56 52 87 58 186 10 156
62 262 197 404 198 207 283 369 304 580 4 39 8 71 10 73 2 2 23 -2 46 -9 24
-6 75 -11 112 -11 138 2 265 53 417 166 44 33 190 175 190 185 0 27 -199 190
-253 207 -15 5 -3 16 55 53 257 166 468 546 564 1016 2 11 9 45 16 75 15 69
13 59 21 100 8 42 10 48 37 169 11 51 18 96 16 99 -3 3 -9 -4 -13 -14 -18 -49
-326 -560 -381 -631 -122 -161 -257 -280 -385 -340 -99 -47 -302 -95 -452
-108 -39 -3 -77 -8 -85 -10 -22 -5 -189 -18 -235 -18 -22 1 -74 10 -115 22
-96 27 -257 52 -351 53 -91 2 -149 -6 -260 -37 -83 -24 -89 -24 -140 -9 -29 9
-60 18 -68 20 -9 2 -35 8 -58 14 -59 14 -147 17 -240 8 -118 -11 -148 -16
-258 -45 -55 -14 -113 -26 -130 -26 -33 0 -202 12 -250 18 -16 2 -57 7 -90 11
-33 3 -69 8 -80 10 -11 3 -36 7 -55 10 -152 23 -356 98 -408 151 -7 7 -18 13
-23 13 -19 0 -216 208 -272 287 -51 72 -156 250 -311 531 -28 50 -54 92 -59
92 -4 0 -5 -5 -1 -11z m2184 -1239 c41 -12 98 -29 125 -40 45 -16 54 -16 83
-4 32 13 37 12 143 -42 113 -57 167 -102 199 -165 l19 -36 -50 -49 c-76 -74
-80 -86 -58 -169 57 -213 81 -384 60 -424 -16 -29 5 -28 72 4 76 36 135 92
207 194 35 50 66 89 68 87 2 -2 -21 -45 -52 -95 l-55 -91 37 25 c35 22 142 69
142 61 0 -2 -29 -25 -65 -52 -67 -51 -69 -54 -80 -117 -7 -46 -52 -79 -96 -70
-23 4 -31 -1 -56 -38 -41 -60 -108 -184 -129 -239 -39 -102 -35 -46 6 89 23
74 61 152 97 199 l25 33 -29 -8 c-15 -4 -62 -8 -103 -8 -62 0 -84 5 -127 28
-29 15 -55 27 -58 27 -15 0 -2 -44 20 -66 30 -30 31 -44 6 -110 -11 -27 -22
-70 -26 -95 -3 -24 -10 -60 -14 -80 -18 -79 -6 -151 37 -235 58 -111 73 -212
48 -314 -8 -33 -17 -121 -21 -200 -2 -36 -3 -68 -4 -72 -4 -23 -270 -39 -322
-20 -13 5 -28 10 -34 10 -30 3 -106 25 -111 33 -3 5 -14 9 -25 9 -10 0 -19 5
-19 10 0 6 -6 10 -13 10 -7 0 -36 21 -65 48 l-51 47 -5 80 c-6 106 -21 164
-66 260 -43 90 -107 177 -205 280 -87 91 -159 193 -186 264 -43 114 -49 170
-44 431 2 129 4 236 4 236 1 1 78 0 171 -1 94 -1 170 1 170 6 0 5 -7 9 -15 9
-16 0 -185 76 -185 83 0 2 13 4 29 5 37 1 126 40 95 41 -12 1 -35 6 -53 12
-32 11 -34 21 -6 25 25 4 105 36 105 43 0 3 -26 5 -57 4 l-58 -3 45 18 c62 24
160 75 160 83 0 3 -24 6 -52 7 -89 1 -95 3 -47 17 148 46 353 57 469 25z
m-1010 -393 l55 -13 -2 -93 c-1 -63 -6 -98 -15 -107 -21 -21 -120 -42 -173
-38 -73 7 -177 53 -260 114 l-74 54 27 18 c33 22 120 56 164 63 18 4 34 8 36
9 9 10 195 4 242 -7z m2650 -2 c19 -4 68 -22 109 -41 l73 -34 -41 -34 c-58
-49 -147 -101 -206 -121 -115 -39 -274 -9 -276 52 0 15 -2 56 -3 90 -1 35 0
66 3 71 19 26 244 37 341 17z"/>
<path d="M1963 2379 c10 -28 115 -195 132 -209 26 -22 16 -32 -12 -12 -26 17
-105 52 -120 52 -3 0 24 -23 61 -50 36 -28 66 -54 67 -58 5 -60 10 -77 27 -95
13 -12 35 -21 57 -21 24 -1 42 -9 52 -21 34 -46 97 -159 129 -232 36 -83 42
-81 19 7 -30 120 -77 225 -120 273 -31 32 -31 39 -2 28 46 -17 89 -4 131 40
l41 42 -40 -27 c-96 -63 -187 -9 -356 214 -41 54 -73 87 -66 69z"/>
</g>
</svg>
